<svg width="55" height="55" viewBox="0 0 55 55" fill="none" xmlns="http://www.w3.org/2000/svg">
<path fill-rule="evenodd" clip-rule="evenodd" d="M34.0424 25.1898C36.6046 35.5485 41.7906 37.7713 41.7906 37.7713C41.7906 37.7713 32.9493 35.7804 27.1047 28.4023C23.5476 23.9118 20.1318 15.3749 20.1318 15.3749L33.232 11.7794C33.232 11.7794 32.5525 19.1673 34.0424 25.1898ZM21.9427 42.3566C34.3235 45.2866 45.5018 39.8251 45.5018 39.8251C45.5018 39.8251 38.0794 41.8895 26.7893 32.9149C20.2229 27.6984 14.8789 19.1354 14.8789 19.1354L3.69659 34.2942C3.69659 34.2942 14.4102 40.5682 21.9427 42.3566ZM40.5232 34.4427C40.5232 34.4427 38.8457 30.946 42.0578 24.5005C43.9254 20.7531 47.4937 17.2988 47.4937 17.2988L39.2537 13.1545C39.2537 13.1545 37.2719 19.0627 37.1242 22.9726C36.8847 29.3993 40.5232 34.4427 40.5232 34.4427ZM46.1812 27.7931C42.28 29.0907 41.5646 31.2278 41.5646 31.2278C41.5646 31.2278 42.0947 27.6298 44.7703 25.0951C46.4 23.5525 49.5834 21.9585 49.5834 21.9585L51.3033 27.1203C51.3033 27.1203 48.4528 27.0394 46.1812 27.7931Z" fill="white"/>
</svg>
