<svg width="45" height="45" viewBox="0 0 45 45" fill="none" xmlns="http://www.w3.org/2000/svg">
<path d="M40.8969 22.5001C40.8969 32.726 32.6071 41.0157 22.3812 41.0157C12.1553 41.0157 3.8656 32.726 3.8656 22.5001C3.8656 12.2742 12.1553 3.98449 22.3812 3.98449C32.6071 3.98449 40.8969 12.2742 40.8969 22.5001ZM7.40283 22.5001C7.40283 30.7725 14.1089 37.4785 22.3812 37.4785C30.6536 37.4785 37.3596 30.7725 37.3596 22.5001C37.3596 14.2278 30.6536 7.52172 22.3812 7.52172C14.1089 7.52172 7.40283 14.2278 7.40283 22.5001Z" fill="white"/>
<path d="M24.1905 21.0051C23.8882 21.4097 23.2384 21.6896 22.4855 21.6896C21.6844 21.6896 21 21.3728 20.7267 20.926C18.9981 21.7582 17.7712 23.8567 17.7712 26.3139C17.7712 27.2297 17.9416 28.0957 18.2449 28.8648H26.5165C26.8198 28.0957 26.9902 27.2297 26.9902 26.3139C26.9902 23.9312 25.8366 21.8857 24.1905 21.0051Z" fill="white"/>
<path d="M28.1927 28.8648H32.2831C32.6466 28.1254 32.8568 27.251 32.8568 26.3139C32.8568 23.6581 31.1683 21.5051 29.0854 21.5051C28.4105 21.5051 27.7771 21.7311 27.229 22.1271C28.1143 23.1786 28.6664 24.6655 28.6664 26.3139C28.6664 27.2297 28.496 28.0957 28.1927 28.8648Z" fill="white"/>
<path d="M16.8076 28.8646H12.7172C12.3537 28.1252 12.1435 27.2508 12.1435 26.3137C12.1435 23.6579 13.832 21.5049 15.9149 21.5049C16.5897 21.5049 17.2232 21.7309 17.7713 22.1269C16.886 23.1784 16.3339 24.6653 16.3339 26.3137C16.3339 27.2295 16.5043 28.0955 16.8076 28.8646Z" fill="white"/>
<path fill-rule="evenodd" clip-rule="evenodd" d="M28.2481 19.3522C29.1949 19.3522 29.9624 18.5404 29.9624 17.539C29.9624 16.5376 29.1949 15.7259 28.2481 15.7259C27.3014 15.7259 26.5339 16.5376 26.5339 17.539C26.5339 18.5404 27.3014 19.3522 28.2481 19.3522Z" fill="white"/>
<path fill-rule="evenodd" clip-rule="evenodd" d="M16.5138 19.3522C17.4605 19.3522 18.228 18.5404 18.228 17.539C18.228 16.5376 17.4605 15.7259 16.5138 15.7259C15.567 15.7259 14.7995 16.5376 14.7995 17.539C14.7995 18.5404 15.567 19.3522 16.5138 19.3522Z" fill="white"/>
<path fill-rule="evenodd" clip-rule="evenodd" d="M22.3813 19.2796C23.5385 19.2796 24.4765 18.3054 24.4765 17.1038C24.4765 15.9021 23.5385 14.928 22.3813 14.928C21.2241 14.928 20.2861 15.9021 20.2861 17.1038C20.2861 18.3054 21.2241 19.2796 22.3813 19.2796Z" fill="white"/>
</svg>
