<svg width="45" height="45" viewBox="0 0 45 45" fill="none" xmlns="http://www.w3.org/2000/svg">
<path d="M18.6496 8.03442C17.627 8.03442 16.798 8.86339 16.798 9.88598V19.6067H27.9711V9.88598C27.9711 8.86339 27.1422 8.03442 26.1196 8.03442H18.6496Z" fill="white"/>
<path fill-rule="evenodd" clip-rule="evenodd" d="M13.1844 15.4922H11.4486C10.426 15.4922 9.59699 16.3212 9.59699 17.3438V19.3689C9.59699 19.4495 9.60214 19.5288 9.61212 19.6067H8.72907C7.70648 19.6067 6.87751 20.4357 6.87751 21.4582V33.8984C6.87751 34.921 7.70648 35.75 8.72907 35.75H36.0396C37.0622 35.75 37.8912 34.921 37.8912 33.8984V21.4582C37.8912 20.4357 37.0622 19.6067 36.0396 19.6067H35.1566C35.1666 19.5288 35.1717 19.4495 35.1717 19.3689V17.3438C35.1717 16.3212 34.3427 15.4922 33.3201 15.4922H31.5843V23.1941H13.1844V15.4922ZM10.6249 27.9156C10.6249 27.0975 11.2881 26.4343 12.1062 26.4343H14.4927C15.3108 26.4343 15.9739 27.0975 15.9739 27.9156V30.1606C15.9739 30.9787 15.3108 31.6418 14.4927 31.6418H12.1062C11.2881 31.6418 10.6249 30.9787 10.6249 30.1606V27.9156ZM21.1909 26.4343C20.3728 26.4343 19.7096 27.0975 19.7096 27.9156V30.1606C19.7096 30.9787 20.3728 31.6418 21.1909 31.6418H23.5774C24.3955 31.6418 25.0586 30.9787 25.0586 30.1606V27.9156C25.0586 27.0975 24.3955 26.4343 23.5774 26.4343H21.1909ZM28.7948 27.9156C28.7948 27.0975 29.4579 26.4343 30.276 26.4343H32.6625C33.4806 26.4343 34.1438 27.0975 34.1438 27.9156V30.1606C34.1438 30.9787 33.4806 31.6418 32.6625 31.6418H30.276C29.4579 31.6418 28.7948 30.9787 28.7948 30.1606V27.9156Z" fill="white"/>
</svg>
