<svg width="45" height="45" viewBox="0 0 45 45" fill="none" xmlns="http://www.w3.org/2000/svg">
<path d="M8.95752 36.3056C8.95752 34.8037 10.175 33.5862 11.6769 33.5862H33.0309C34.5328 33.5862 35.7504 34.8037 35.7504 36.3056V36.3056H8.95752V36.3056Z" fill="white"/>
<path fill-rule="evenodd" clip-rule="evenodd" d="M33.7275 21.6379H11.2728V31.5321H19.0725V27.5844C19.0725 25.9267 20.4164 24.5828 22.0741 24.5828H22.926C24.5838 24.5828 25.9276 25.9267 25.9276 27.5844V31.5321H33.7275V21.6379Z" fill="white"/>
<path fill-rule="evenodd" clip-rule="evenodd" d="M27.735 16.736C28.5555 17.9776 29.9638 18.7966 31.5635 18.7966C34.0961 18.7966 36.1492 16.7435 36.1492 14.2109V14.0502C36.1492 13.8754 36.0075 13.7338 35.8328 13.7338H35.1393L28.4512 7.56254C28.2802 7.40476 28.0561 7.31715 27.8234 7.31715H26.3982L27.7455 16.4054C27.7623 16.5187 27.7578 16.6303 27.735 16.736ZM24.5637 7.31715H20.056L18.7546 16.4047C18.7338 16.5497 18.6806 16.6819 18.6032 16.7952C19.4291 18.0035 20.8179 18.7966 22.392 18.7966C23.8729 18.7966 25.1899 18.0946 26.0283 17.0052C25.9713 16.9068 25.9316 16.7962 25.9139 16.6769L24.5653 7.57929C24.5521 7.49016 24.552 7.40212 24.5637 7.31715ZM16.9217 16.1423C16.8813 16.4248 16.9729 16.6957 17.1498 16.8926C16.3163 18.0448 14.9637 18.7966 13.4367 18.7966C10.9041 18.7966 8.85095 16.7282 8.85095 14.1956C8.85095 13.9414 9.05702 13.7338 9.31121 13.7338H9.86451L16.5947 7.56067C16.7655 7.40404 16.9888 7.31715 17.2205 7.31715H18.1855L16.9217 16.1423Z" fill="white"/>
</svg>
