<svg width="87" height="87" viewBox="0 0 87 87" fill="none" xmlns="http://www.w3.org/2000/svg">
<path fill-rule="evenodd" clip-rule="evenodd" d="M53.8717 39.8376C57.9336 56.2593 66.1549 59.7831 66.1549 59.7831C66.1549 59.7831 52.1389 56.627 42.8734 44.9305C37.2343 37.8116 31.8193 24.2781 31.8193 24.2781L52.587 18.5781C52.587 18.5781 51.5098 30.2901 53.8717 39.8376ZM34.6902 67.0522C54.3174 71.6971 72.0383 63.039 72.0383 63.039C72.0383 63.039 60.2716 66.3117 42.3735 52.0843C31.9637 43.8146 23.4918 30.2397 23.4918 30.2397L5.76451 54.2708C5.76451 54.2708 22.7488 64.2171 34.6902 67.0522ZM64.1457 54.5063C64.1457 54.5063 61.4863 48.9629 66.5786 38.7449C69.5392 32.8041 75.196 27.328 75.196 27.328L62.1332 20.7581C62.1332 20.7581 58.9915 30.1243 58.7573 36.3227C58.3776 46.511 64.1457 54.5063 64.1457 54.5063ZM73.1154 43.9647C66.9308 46.0218 65.7967 49.4097 65.7967 49.4097C65.7967 49.4097 66.6371 43.7058 70.8788 39.6874C73.4622 37.242 78.5089 34.715 78.5089 34.715L81.2354 42.898C81.2354 42.898 76.7166 42.7698 73.1154 43.9647Z" fill="#00B19D"/>
</svg>
